<?xml version="1.0" standalone="no"?>
<!DOCTYPE svg PUBLIC "-//W3C//DTD SVG 20010904//EN"
 "http://www.w3.org/TR/2001/REC-SVG-20010904/DTD/svg10.dtd">
<svg version="1.0" xmlns="http://www.w3.org/2000/svg"
 width="512.000000pt" height="512.000000pt" viewBox="0 0 512.000000 512.000000"
 preserveAspectRatio="xMidYMid meet">
<metadata>
Created by potrace 1.11, written by Peter Selinger 2001-2013
</metadata>
<g transform="translate(0.000000,512.000000) scale(0.100000,-0.100000)"
fill="#000000" stroke="none">
<path d="M3440 4911 c-100 -33 -168 -108 -185 -206 -6 -31 -22 -55 -71 -105
-168 -173 -279 -385 -309 -590 -12 -79 -7 -228 9 -310 7 -33 4 -37 -46 -80
-114 -95 -208 -214 -274 -347 l-46 -93 -42 26 c-148 91 -377 181 -531 208 -16
3 -39 8 -50 10 -93 19 -327 27 -425 15 -167 -21 -220 -32 -355 -76 -157 -50
-401 -182 -505 -272 -108 -93 -142 -126 -207 -200 -210 -239 -344 -537 -390
-862 -9 -66 -10 -345 0 -414 6 -46 16 -99 37 -195 27 -128 128 -354 217 -488
250 -376 612 -617 1063 -708 121 -24 260 -28 1040 -28 760 1 905 4 1014 25 28
5 63 12 77 14 104 19 348 121 457 191 212 139 400 335 509 532 62 114 46 111
159 26 123 -95 161 -114 228 -118 77 -5 138 12 193 53 117 89 146 265 62 380
-25 35 -92 93 -209 181 -18 14 -78 60 -133 102 l-100 78 -2 622 c-1 442 -5
643 -14 693 -14 81 -62 228 -99 300 -66 132 -187 280 -298 365 l-56 44 5 81
c16 217 123 389 326 520 38 25 75 45 83 45 7 0 33 -7 58 -16 61 -21 135 -13
199 22 227 123 147 470 -111 480 -104 4 -187 -41 -240 -132 -26 -45 -45 -63
-93 -89 -273 -151 -465 -398 -523 -675 -8 -41 -17 -77 -18 -79 -3 -3 -99 13
-159 26 -93 21 -334 4 -447 -31 -55 -17 -56 -16 -51 74 8 158 76 307 199 439
l55 59 49 -5 c34 -4 65 0 101 13 265 96 218 479 -62 499 -35 3 -75 1 -89 -4z"/>
</g>
</svg>
